<mxfile host="Electron" modified="2023-08-26T11:23:42.661Z" agent="Mozilla/5.0 (Macintosh; Intel Mac OS X 10_15_7) AppleWebKit/537.36 (KHTML, like Gecko) draw.io/21.2.8 Chrome/112.0.5615.165 Electron/24.2.0 Safari/537.36" etag="YFrttQmuuhIdfUW6DhwV" version="21.2.8" type="device">
  <diagram name="Page-1" id="tOO6ThWA4qxAL5BXLKam">
    <mxGraphModel dx="662" dy="443" grid="1" gridSize="10" guides="1" tooltips="1" connect="1" arrows="1" fold="1" page="1" pageScale="1" pageWidth="850" pageHeight="1100" math="0" shadow="0">
      <root>
        <mxCell id="0" />
        <mxCell id="1" parent="0" />
        <mxCell id="kUwJl0rubtec9IVIEj3L-1" value="" style="endArrow=none;html=1;rounded=0;" edge="1" parent="1" source="kUwJl0rubtec9IVIEj3L-5">
          <mxGeometry width="50" height="50" relative="1" as="geometry">
            <mxPoint x="205" y="390" as="sourcePoint" />
            <mxPoint x="205" y="100" as="targetPoint" />
          </mxGeometry>
        </mxCell>
        <mxCell id="kUwJl0rubtec9IVIEj3L-2" value="" style="endArrow=none;html=1;rounded=0;" edge="1" parent="1" source="kUwJl0rubtec9IVIEj3L-8">
          <mxGeometry width="50" height="50" relative="1" as="geometry">
            <mxPoint x="340" y="392" as="sourcePoint" />
            <mxPoint x="340" y="102" as="targetPoint" />
          </mxGeometry>
        </mxCell>
        <mxCell id="kUwJl0rubtec9IVIEj3L-3" value="" style="endArrow=none;html=1;rounded=0;" edge="1" parent="1" source="kUwJl0rubtec9IVIEj3L-14">
          <mxGeometry width="50" height="50" relative="1" as="geometry">
            <mxPoint x="472" y="390" as="sourcePoint" />
            <mxPoint x="472" y="100" as="targetPoint" />
          </mxGeometry>
        </mxCell>
        <mxCell id="kUwJl0rubtec9IVIEj3L-4" value="" style="endArrow=none;html=1;rounded=0;" edge="1" parent="1" source="kUwJl0rubtec9IVIEj3L-18">
          <mxGeometry width="50" height="50" relative="1" as="geometry">
            <mxPoint x="569" y="390" as="sourcePoint" />
            <mxPoint x="569" y="100" as="targetPoint" />
          </mxGeometry>
        </mxCell>
        <mxCell id="kUwJl0rubtec9IVIEj3L-7" value="" style="endArrow=none;html=1;rounded=0;" edge="1" parent="1" target="kUwJl0rubtec9IVIEj3L-5">
          <mxGeometry width="50" height="50" relative="1" as="geometry">
            <mxPoint x="205" y="390" as="sourcePoint" />
            <mxPoint x="205" y="100" as="targetPoint" />
          </mxGeometry>
        </mxCell>
        <mxCell id="kUwJl0rubtec9IVIEj3L-5" value="" style="rounded=0;whiteSpace=wrap;html=1;" vertex="1" parent="1">
          <mxGeometry x="195" y="120" width="20" height="60" as="geometry" />
        </mxCell>
        <mxCell id="kUwJl0rubtec9IVIEj3L-11" value="" style="endArrow=none;html=1;rounded=0;" edge="1" parent="1" source="kUwJl0rubtec9IVIEj3L-12" target="kUwJl0rubtec9IVIEj3L-8">
          <mxGeometry width="50" height="50" relative="1" as="geometry">
            <mxPoint x="340" y="392" as="sourcePoint" />
            <mxPoint x="340" y="102" as="targetPoint" />
          </mxGeometry>
        </mxCell>
        <mxCell id="kUwJl0rubtec9IVIEj3L-8" value="" style="rounded=0;whiteSpace=wrap;html=1;" vertex="1" parent="1">
          <mxGeometry x="330" y="140" width="20" height="30" as="geometry" />
        </mxCell>
        <mxCell id="kUwJl0rubtec9IVIEj3L-13" value="" style="endArrow=none;html=1;rounded=0;" edge="1" parent="1" target="kUwJl0rubtec9IVIEj3L-12">
          <mxGeometry width="50" height="50" relative="1" as="geometry">
            <mxPoint x="340" y="392" as="sourcePoint" />
            <mxPoint x="340" y="170" as="targetPoint" />
          </mxGeometry>
        </mxCell>
        <mxCell id="kUwJl0rubtec9IVIEj3L-12" value="" style="rounded=0;whiteSpace=wrap;html=1;" vertex="1" parent="1">
          <mxGeometry x="330" y="190" width="20" height="190" as="geometry" />
        </mxCell>
        <mxCell id="kUwJl0rubtec9IVIEj3L-16" value="" style="endArrow=none;html=1;rounded=0;" edge="1" parent="1" target="kUwJl0rubtec9IVIEj3L-14">
          <mxGeometry width="50" height="50" relative="1" as="geometry">
            <mxPoint x="472" y="390" as="sourcePoint" />
            <mxPoint x="472" y="100" as="targetPoint" />
          </mxGeometry>
        </mxCell>
        <mxCell id="kUwJl0rubtec9IVIEj3L-14" value="" style="rounded=0;whiteSpace=wrap;html=1;" vertex="1" parent="1">
          <mxGeometry x="462" y="170" width="20" height="50" as="geometry" />
        </mxCell>
        <mxCell id="kUwJl0rubtec9IVIEj3L-17" value="" style="rounded=0;whiteSpace=wrap;html=1;" vertex="1" parent="1">
          <mxGeometry x="462" y="247" width="20" height="50" as="geometry" />
        </mxCell>
        <mxCell id="kUwJl0rubtec9IVIEj3L-19" value="" style="endArrow=none;html=1;rounded=0;" edge="1" parent="1" target="kUwJl0rubtec9IVIEj3L-18">
          <mxGeometry width="50" height="50" relative="1" as="geometry">
            <mxPoint x="569" y="390" as="sourcePoint" />
            <mxPoint x="569" y="100" as="targetPoint" />
          </mxGeometry>
        </mxCell>
        <mxCell id="kUwJl0rubtec9IVIEj3L-18" value="" style="rounded=0;whiteSpace=wrap;html=1;" vertex="1" parent="1">
          <mxGeometry x="559" y="320" width="20" height="50" as="geometry" />
        </mxCell>
        <mxCell id="kUwJl0rubtec9IVIEj3L-20" value="aClient" style="text;html=1;strokeColor=none;fillColor=none;align=center;verticalAlign=middle;whiteSpace=wrap;rounded=0;" vertex="1" parent="1">
          <mxGeometry x="175" y="70" width="60" height="30" as="geometry" />
        </mxCell>
        <mxCell id="kUwJl0rubtec9IVIEj3L-21" value="aFontDialogDirector" style="text;html=1;strokeColor=none;fillColor=none;align=center;verticalAlign=middle;whiteSpace=wrap;rounded=0;" vertex="1" parent="1">
          <mxGeometry x="310" y="70" width="60" height="30" as="geometry" />
        </mxCell>
        <mxCell id="kUwJl0rubtec9IVIEj3L-22" value="aListBox" style="text;html=1;strokeColor=none;fillColor=none;align=center;verticalAlign=middle;whiteSpace=wrap;rounded=0;" vertex="1" parent="1">
          <mxGeometry x="442" y="70" width="60" height="30" as="geometry" />
        </mxCell>
        <mxCell id="kUwJl0rubtec9IVIEj3L-23" value="anEntryField" style="text;html=1;strokeColor=none;fillColor=none;align=center;verticalAlign=middle;whiteSpace=wrap;rounded=0;" vertex="1" parent="1">
          <mxGeometry x="539" y="70" width="60" height="30" as="geometry" />
        </mxCell>
        <mxCell id="kUwJl0rubtec9IVIEj3L-24" value="&lt;b&gt;Mediator&lt;/b&gt;" style="text;html=1;strokeColor=none;fillColor=none;align=center;verticalAlign=middle;whiteSpace=wrap;rounded=0;" vertex="1" parent="1">
          <mxGeometry x="310" y="40" width="60" height="30" as="geometry" />
        </mxCell>
        <mxCell id="kUwJl0rubtec9IVIEj3L-25" value="&lt;b&gt;Colleagues&lt;/b&gt;" style="text;html=1;strokeColor=none;fillColor=none;align=center;verticalAlign=middle;whiteSpace=wrap;rounded=0;" vertex="1" parent="1">
          <mxGeometry x="492" y="40" width="60" height="30" as="geometry" />
        </mxCell>
        <mxCell id="kUwJl0rubtec9IVIEj3L-26" value="" style="endArrow=blockThin;html=1;rounded=0;endFill=1;exitX=0.99;exitY=0.471;exitDx=0;exitDy=0;entryX=0;entryY=0.25;entryDx=0;entryDy=0;exitPerimeter=0;" edge="1" parent="1" source="kUwJl0rubtec9IVIEj3L-5" target="kUwJl0rubtec9IVIEj3L-8">
          <mxGeometry width="50" height="50" relative="1" as="geometry">
            <mxPoint x="230" y="200" as="sourcePoint" />
            <mxPoint x="280" y="150" as="targetPoint" />
          </mxGeometry>
        </mxCell>
        <mxCell id="kUwJl0rubtec9IVIEj3L-27" value="showDialog()" style="edgeLabel;html=1;align=center;verticalAlign=middle;resizable=0;points=[];" vertex="1" connectable="0" parent="kUwJl0rubtec9IVIEj3L-26">
          <mxGeometry x="-0.8944" y="1" relative="1" as="geometry">
            <mxPoint x="27" y="-9" as="offset" />
          </mxGeometry>
        </mxCell>
        <mxCell id="kUwJl0rubtec9IVIEj3L-28" value="" style="endArrow=blockThin;html=1;rounded=0;endFill=1;exitX=-0.01;exitY=0.588;exitDx=0;exitDy=0;exitPerimeter=0;entryX=1.037;entryY=0.046;entryDx=0;entryDy=0;entryPerimeter=0;" edge="1" parent="1" source="kUwJl0rubtec9IVIEj3L-14" target="kUwJl0rubtec9IVIEj3L-12">
          <mxGeometry width="50" height="50" relative="1" as="geometry">
            <mxPoint x="460" y="196" as="sourcePoint" />
            <mxPoint x="370" y="200" as="targetPoint" />
          </mxGeometry>
        </mxCell>
        <mxCell id="kUwJl0rubtec9IVIEj3L-29" value="WidgetChanged()" style="edgeLabel;html=1;align=center;verticalAlign=middle;resizable=0;points=[];" vertex="1" connectable="0" parent="kUwJl0rubtec9IVIEj3L-28">
          <mxGeometry x="-0.8944" y="1" relative="1" as="geometry">
            <mxPoint x="-41" y="-11" as="offset" />
          </mxGeometry>
        </mxCell>
        <mxCell id="kUwJl0rubtec9IVIEj3L-30" value="" style="endArrow=blockThin;html=1;rounded=0;endFill=1;exitX=1.01;exitY=0.322;exitDx=0;exitDy=0;exitPerimeter=0;entryX=-0.006;entryY=0.088;entryDx=0;entryDy=0;entryPerimeter=0;" edge="1" parent="1" source="kUwJl0rubtec9IVIEj3L-12" target="kUwJl0rubtec9IVIEj3L-17">
          <mxGeometry width="50" height="50" relative="1" as="geometry">
            <mxPoint x="472" y="206" as="sourcePoint" />
            <mxPoint x="361" y="207" as="targetPoint" />
          </mxGeometry>
        </mxCell>
        <mxCell id="kUwJl0rubtec9IVIEj3L-31" value="GetSelection()" style="edgeLabel;html=1;align=center;verticalAlign=middle;resizable=0;points=[];" vertex="1" connectable="0" parent="kUwJl0rubtec9IVIEj3L-30">
          <mxGeometry x="-0.8944" y="1" relative="1" as="geometry">
            <mxPoint x="31" y="-8" as="offset" />
          </mxGeometry>
        </mxCell>
        <mxCell id="kUwJl0rubtec9IVIEj3L-32" value="" style="endArrow=blockThin;html=1;rounded=0;endFill=1;exitX=1.005;exitY=0.72;exitDx=0;exitDy=0;exitPerimeter=0;entryX=-0.08;entryY=0.152;entryDx=0;entryDy=0;entryPerimeter=0;" edge="1" parent="1" source="kUwJl0rubtec9IVIEj3L-12" target="kUwJl0rubtec9IVIEj3L-18">
          <mxGeometry width="50" height="50" relative="1" as="geometry">
            <mxPoint x="350" y="330" as="sourcePoint" />
            <mxPoint x="462" y="330" as="targetPoint" />
          </mxGeometry>
        </mxCell>
        <mxCell id="kUwJl0rubtec9IVIEj3L-33" value="SetText()" style="edgeLabel;html=1;align=center;verticalAlign=middle;resizable=0;points=[];" vertex="1" connectable="0" parent="kUwJl0rubtec9IVIEj3L-32">
          <mxGeometry x="-0.8944" y="1" relative="1" as="geometry">
            <mxPoint x="14" y="-8" as="offset" />
          </mxGeometry>
        </mxCell>
      </root>
    </mxGraphModel>
  </diagram>
</mxfile>
